AmstelvarA2-Italic_GRAD142.ufo
<glyph name="M" format="2">
  <advance width="1918"/>
  <unicode hex="004D"/>
  <anchor x="768.0" y="0" name="bottom"/>
  <anchor x="1048.0" y="1500" name="top"/>
  <outline>
    <contour>
      <point x="-90" y="0" type="line"/>
      <point x="-81" y="120" type="line"/>
      <point x="99" y="135" type="line"/>
      <point x="228" y="754" type="line"/>
      <point x="336" y="1352" type="line"/>
      <point x="183" y="1366" type="line"/>
      <point x="196" y="1500" type="line"/>
      <point x="676" y="1500" type="line"/>
      <point x="782" y="788" type="line"/>
      <point x="841" y="403" type="line"/>
      <point x="853" y="289" type="line"/>
      <point x="863" y="289" type="line"/>
      <point x="921" y="403" type="line"/>
      <point x="1154" y="830" type="line"/>
      <point x="1518" y="1500" type="line"/>
      <point x="1969" y="1500" type="line"/>
      <point x="1948" y="1366" type="line"/>
      <point x="1781" y="1352" type="line"/>
      <point x="1663" y="754" type="line"/>
      <point x="1544" y="135" type="line"/>
      <point x="1716" y="120" type="line"/>
      <point x="1707" y="0" type="line"/>
      <point x="1128" y="0" type="line"/>
      <point x="1137" y="120" type="line"/>
      <point x="1300" y="135" type="line"/>
      <point x="1420" y="754" type="line"/>
      <point x="1481" y="1060" type="line"/>
      <point x="1510" y="1179" type="line"/>
      <point x="1501" y="1181" type="line"/>
      <point x="1445" y="1074" type="line"/>
      <point x="1266" y="754" type="line"/>
      <point x="849" y="-8" type="line"/>
      <point x="664" y="-8" type="line"/>
      <point x="550" y="733" type="line"/>
      <point x="494" y="1108" type="line"/>
      <point x="483" y="1216" type="line"/>
      <point x="472" y="1214" type="line"/>
      <point x="455" y="1094" type="line"/>
      <point x="390" y="754" type="line"/>
      <point x="271" y="135" type="line"/>
      <point x="447" y="120" type="line"/>
      <point x="428" y="0" type="line"/>
    </contour>
  </outline>
</glyph>
<glyph name="V" format="2">
  <advance width="1201"/>
  <unicode hex="0056"/>
  <anchor x="373.0" y="0" name="bottom"/>
  <anchor x="743.0" y="1500" name="top"/>
  <outline>
    <contour>
      <point x="32" y="1366" type="line"/>
      <point x="53" y="1500" type="line"/>
      <point x="593" y="1500" type="line"/>
      <point x="572" y="1366" type="line"/>
      <point x="427" y="1345" type="line"/>
      <point x="466" y="804" type="line"/>
      <point x="486" y="552" type="line"/>
      <point x="491" y="423" type="line"/>
      <point x="509" y="423" type="line"/>
      <point x="579" y="552" type="line"/>
      <point x="729" y="815" type="line"/>
      <point x="1021" y="1352" type="line"/>
      <point x="848" y="1366" type="line"/>
      <point x="861" y="1500" type="line"/>
      <point x="1380" y="1500" type="line"/>
      <point x="1367" y="1366" type="line"/>
      <point x="1209" y="1347" type="line"/>
      <point x="875" y="753" type="line"/>
      <point x="448" y="-8" type="line"/>
      <point x="277" y="-8" type="line"/>
      <point x="216" y="739" type="line"/>
      <point x="165" y="1346" type="line"/>
    </contour>
  </outline>
</glyph>
<glyph name="k" format="2">
  <advance width="1004"/>
  <unicode hex="006B"/>
  <anchor x="448.0" y="0" name="bottom"/>
  <anchor x="578.0" y="1534" name="top"/>
  <outline>
    <contour>
      <point x="537" y="448" type="line"/>
      <point x="119" y="163" type="line"/>
      <point x="152" y="332" type="line"/>
      <point x="676" y="724" type="line"/>
      <point x="676" y="787"/>
      <point x="624" y="849"/>
      <point x="576" y="849" type="qcurve" smooth="yes"/>
      <point x="525" y="849"/>
      <point x="394" y="735"/>
      <point x="343" y="644" type="qcurve"/>
      <point x="332" y="588" type="line"/>
      <point x="237" y="107" type="line"/>
      <point x="268" y="24" type="line"/>
      <point x="24" y="-23" type="line"/>
      <point x="-18" y="56" type="line"/>
      <point x="85" y="527" type="line"/>
      <point x="244" y="1391" type="line"/>
      <point x="110" y="1483" type="line"/>
      <point x="136" y="1572" type="line"/>
      <point x="429" y="1606" type="line"/>
      <point x="516" y="1536" type="line"/>
      <point x="372" y="840" type="line"/>
      <point x="426" y="921"/>
      <point x="561" y="1016"/>
      <point x="650" y="1016" type="qcurve" smooth="yes"/>
      <point x="745" y="1016"/>
      <point x="877" y="908"/>
      <point x="888" y="824" type="qcurve" smooth="yes"/>
      <point x="899" y="735" type="line"/>
      <point x="888" y="713" type="line"/>
    </contour>
    <contour>
      <point x="604" y="576" type="line"/>
      <point x="865" y="133" type="line"/>
      <point x="969" y="133" type="line"/>
      <point x="969" y="45" type="line"/>
      <point x="684" y="-6" type="line" smooth="yes"/>
      <point x="669" y="-9"/>
      <point x="648" y="12"/>
      <point x="589" y="115" type="qcurve" smooth="yes"/>
      <point x="408" y="431" type="line"/>
    </contour>
  </outline>
</glyph>
<glyph name="twosuperior" format="2">
  <advance width="774"/>
  <unicode hex="00B2"/>
  <outline>
    <contour>
      <point x="102" y="638" type="qcurve"/>
      <point x="49" y="735" type="line"/>
      <point x="121" y="789" type="line"/>
      <point x="436" y="1041"/>
      <point x="561" y="1203"/>
      <point x="561" y="1272" type="qcurve" smooth="yes"/>
      <point x="561" y="1325"/>
      <point x="502" y="1377"/>
      <point x="441" y="1377" type="qcurve" smooth="yes"/>
      <point x="390" y="1377"/>
      <point x="296" y="1334"/>
      <point x="242" y="1277" type="qcurve"/>
      <point x="168" y="1382" type="line"/>
      <point x="236" y="1454"/>
      <point x="401" y="1530"/>
      <point x="515" y="1530" type="qcurve" smooth="yes"/>
      <point x="629" y="1530"/>
      <point x="769" y="1417"/>
      <point x="769" y="1320" type="qcurve" smooth="yes"/>
      <point x="769" y="1126"/>
      <point x="424" y="857"/>
      <point x="344" y="819" type="qcurve"/>
      <point x="348" y="814" type="line"/>
      <point x="405" y="827"/>
      <point x="598" y="826"/>
      <point x="692" y="806" type="qcurve"/>
      <point x="653" y="616" type="line"/>
      <point x="508" y="660"/>
      <point x="227" y="674"/>
    </contour>
  </outline>
</glyph>
<glyph name="onesuperior" format="2">
  <advance width="570"/>
  <unicode hex="00B9"/>
  <outline>
    <contour>
      <point x="168" y="645" type="line"/>
      <point x="196" y="695"/>
      <point x="245" y="892"/>
      <point x="267" y="1004" type="qcurve" smooth="yes"/>
      <point x="321" y="1274" type="line"/>
      <point x="307" y="1278" type="line"/>
      <point x="124" y="1146" type="line"/>
      <point x="61" y="1273" type="line"/>
      <point x="500" y="1540" type="line"/>
      <point x="587" y="1484" type="line"/>
      <point x="575" y="1456"/>
      <point x="553" y="1384"/>
      <point x="551" y="1372" type="qcurve" smooth="yes"/>
      <point x="490" y="1063" type="line"/>
      <point x="443" y="725" type="line"/>
      <point x="265" y="606" type="line"/>
    </contour>
  </outline>
</glyph>
<glyph name="guillemotright" format="2">
  <advance width="1295"/>
  <unicode hex="00BB"/>
  <outline>
    <contour>
      <point x="748.0" y="516.0" type="line"/>
      <point x="748.0" y="516.0"/>
      <point x="193.0" y="238.0"/>
      <point x="114.0" y="198.0" type="qcurve" smooth="yes"/>
      <point x="18.0" y="149.0"/>
      <point x="-52.0" y="321.0"/>
      <point x="39.0" y="372.0" type="qcurve" smooth="yes"/>
      <point x="207.0" y="466.0"/>
      <point x="461.0" y="613.0"/>
      <point x="461.0" y="613.0" type="qcurve"/>
      <point x="461.0" y="613.0"/>
      <point x="240.0" y="816.0"/>
      <point x="158.0" y="879.0" type="qcurve" smooth="yes"/>
      <point x="75.0" y="942.0"/>
      <point x="174.0" y="1095.0"/>
      <point x="268.0" y="1043.0" type="qcurve" smooth="yes"/>
      <point x="328.0" y="1010.0"/>
      <point x="698.0" y="739.0"/>
      <point x="764.0" y="691.0" type="qcurve"/>
    </contour>
    <contour>
      <point x="1280" y="486" type="line"/>
      <point x="1280" y="486"/>
      <point x="695" y="208"/>
      <point x="616" y="168" type="qcurve" smooth="yes"/>
      <point x="520" y="119"/>
      <point x="450" y="291"/>
      <point x="541" y="342" type="qcurve" smooth="yes"/>
      <point x="709" y="436"/>
      <point x="983" y="583"/>
      <point x="983" y="583" type="qcurve"/>
      <point x="983" y="583"/>
      <point x="742" y="786"/>
      <point x="660" y="849" type="qcurve" smooth="yes"/>
      <point x="577" y="912"/>
      <point x="676" y="1065"/>
      <point x="770" y="1013" type="qcurve" smooth="yes"/>
      <point x="830" y="980"/>
      <point x="1230" y="709"/>
      <point x="1296" y="661" type="qcurve"/>
    </contour>
  </outline>
</glyph>
<glyph name="thorn" format="2">
  <advance width="1026"/>
  <unicode hex="00FE"/>
  <outline>
    <contour>
      <point x="-89" y="-392" type="line"/>
      <point x="81" y="512" type="line"/>
      <point x="231" y="1410" type="line"/>
      <point x="127" y="1502" type="line"/>
      <point x="155" y="1574" type="line"/>
      <point x="406" y="1608" type="line"/>
      <point x="493" y="1538" type="line"/>
      <point x="366" y="830" type="line"/>
      <point x="441" y="898"/>
      <point x="647" y="1006"/>
      <point x="748" y="1006" type="qcurve" smooth="yes"/>
      <point x="848" y="1006"/>
      <point x="972" y="877"/>
      <point x="972" y="768" type="qcurve" smooth="yes"/>
      <point x="972" y="427"/>
      <point x="531" y="7"/>
      <point x="321" y="7" type="qcurve" smooth="yes"/>
      <point x="290" y="7"/>
      <point x="238" y="18"/>
      <point x="217" y="28" type="qcurve"/>
      <point x="162" y="-296" type="line"/>
      <point x="287" y="-336" type="line"/>
      <point x="249" y="-428" type="line"/>
      <point x="-2" y="-462" type="line"/>
    </contour>
    <contour>
      <point x="261" y="268" type="line"/>
      <point x="250" y="207"/>
      <point x="304" y="168"/>
      <point x="353" y="168" type="qcurve" smooth="yes"/>
      <point x="552" y="168"/>
      <point x="703" y="477"/>
      <point x="703" y="689" type="qcurve" smooth="yes"/>
      <point x="703" y="767"/>
      <point x="656" y="828"/>
      <point x="600" y="828" type="qcurve" smooth="yes"/>
      <point x="524" y="828"/>
      <point x="420" y="756"/>
      <point x="347" y="691" type="qcurve"/>
      <point x="300" y="467" type="line"/>
    </contour>
  </outline>
</glyph>
<glyph name="Schwa" format="2">
  <advance width="1303"/>
  <unicode hex="018F"/>
  <outline>
    <contour>
      <point x="436" y="141" type="qcurve" smooth="yes"/>
      <point x="368" y="146"/>
      <point x="301" y="227"/>
      <point x="294" y="272" type="qcurve" smooth="yes"/>
      <point x="285" y="329"/>
      <point x="326" y="377"/>
      <point x="369" y="378" type="qcurve" smooth="yes"/>
      <point x="550" y="384" type="line"/>
      <point x="1021" y="375" type="line"/>
      <point x="1066" y="525" type="line"/>
      <point x="82" y="525" type="line"/>
      <point x="35" y="498" type="line"/>
      <point x="20" y="463"/>
      <point x="5" y="359"/>
      <point x="5" y="327" type="qcurve" smooth="yes"/>
      <point x="5" y="191"/>
      <point x="203" y="17"/>
      <point x="353" y="-3" type="qcurve" smooth="yes"/>
      <point x="628" y="-40"/>
      <point x="1170" y="345"/>
      <point x="1262" y="671" type="qcurve" smooth="yes"/>
      <point x="1357" y="1007"/>
      <point x="1126" y="1497"/>
      <point x="827" y="1536" type="qcurve" smooth="yes"/>
      <point x="625" y="1562"/>
      <point x="272" y="1432"/>
      <point x="165" y="1258" type="qcurve"/>
      <point x="201" y="1146" type="line"/>
      <point x="246" y="1122" type="line"/>
      <point x="336" y="1249"/>
      <point x="572" y="1387"/>
      <point x="763" y="1358" type="qcurve" smooth="yes"/>
      <point x="959" y="1328"/>
      <point x="1068" y="968"/>
      <point x="995" y="678" type="qcurve" smooth="yes"/>
      <point x="921" y="383"/>
      <point x="591" y="129"/>
    </contour>
  </outline>
</glyph>
<glyph name="dotaccentcomb" format="2">
  <unicode hex="0307"/>
  <anchor x="0.0" y="1000" name="_top"/>
  <anchor x="73.0" y="1372.0" name="top"/>
  <outline>
    <contour>
      <point x="-99" y="1269" type="qcurve" smooth="yes"/>
      <point x="-99" y="1340"/>
      <point x="-22" y="1417"/>
      <point x="52" y="1417" type="qcurve" smooth="yes"/>
      <point x="121" y="1417"/>
      <point x="203" y="1335"/>
      <point x="203" y="1269" type="qcurve" smooth="yes"/>
      <point x="203" y="1198"/>
      <point x="126" y="1122"/>
      <point x="52" y="1122" type="qcurve" smooth="yes"/>
      <point x="-17" y="1122"/>
      <point x="-99" y="1203"/>
    </contour>
  </outline>
</glyph>
<glyph name="dblgravecomb" format="2">
  <unicode hex="0311"/>
  <anchor x="0.0" y="1000" name="_top"/>
  <anchor x="114.0" y="1585.0" name="top"/>
  <outline>
    <contour>
      <point x="-313" y="1548" type="qcurve" smooth="yes"/>
      <point x="-297" y="1584"/>
      <point x="-218" y="1611"/>
      <point x="-179" y="1595" type="qcurve" smooth="yes"/>
      <point x="-141" y="1580"/>
      <point x="-106" y="1494"/>
      <point x="-93" y="1445" type="qcurve" smooth="yes"/>
      <point x="-15" y="1176" type="line"/>
      <point x="-150" y="1118" type="line"/>
      <point x="-290" y="1399" type="line" smooth="yes"/>
      <point x="-313" y="1444"/>
      <point x="-331" y="1511"/>
    </contour>
    <contour>
      <point x="-19" y="1548" type="qcurve" smooth="yes"/>
      <point x="-3" y="1584"/>
      <point x="76" y="1611"/>
      <point x="115" y="1595" type="qcurve" smooth="yes"/>
      <point x="153" y="1580"/>
      <point x="188" y="1494"/>
      <point x="201" y="1445" type="qcurve" smooth="yes"/>
      <point x="279" y="1176" type="line"/>
      <point x="144" y="1118" type="line"/>
      <point x="4" y="1399" type="line" smooth="yes"/>
      <point x="-19" y="1444"/>
      <point x="-37" y="1511"/>
    </contour>
  </outline>
</glyph>
<glyph name="dotbelowcomb" format="2">
  <unicode hex="0323"/>
  <anchor x="-194.0" y="0" name="_bottom"/>
  <anchor x="-194.0" y="-422.0" name="bottom"/>
  <outline>
    <contour>
      <point x="-418" y="-282" type="qcurve" smooth="yes"/>
      <point x="-418" y="-213"/>
      <point x="-343" y="-138"/>
      <point x="-271" y="-138" type="qcurve" smooth="yes"/>
      <point x="-203" y="-138"/>
      <point x="-123" y="-218"/>
      <point x="-123" y="-282" type="qcurve" smooth="yes"/>
      <point x="-123" y="-352"/>
      <point x="-198" y="-427"/>
      <point x="-271" y="-427" type="qcurve" smooth="yes"/>
      <point x="-338" y="-427"/>
      <point x="-418" y="-347"/>
    </contour>
  </outline>
</glyph>
<glyph name="commaaccentcomb" format="2">
  <unicode hex="0326"/>
  <anchor x="-194.0" y="0" name="_bottom"/>
  <anchor x="-330.0" y="-700.0" name="bottom"/>
  <outline>
    <contour>
      <point x="-440" y="-531" type="line"/>
      <point x="-401" y="-503"/>
      <point x="-306" y="-419"/>
      <point x="-272" y="-368" type="qcurve"/>
      <point x="-344" y="-368"/>
      <point x="-425" y="-293"/>
      <point x="-425" y="-233" type="qcurve" smooth="yes"/>
      <point x="-425" y="-176"/>
      <point x="-335" y="-98"/>
      <point x="-271" y="-98" type="qcurve" smooth="yes"/>
      <point x="-210" y="-98"/>
      <point x="-118" y="-187"/>
      <point x="-118" y="-279" type="qcurve" smooth="yes"/>
      <point x="-118" y="-382"/>
      <point x="-284" y="-552"/>
      <point x="-379" y="-606" type="qcurve"/>
    </contour>
  </outline>
</glyph>
<glyph name="cedillacomb" format="2">
  <unicode hex="0327"/>
  <anchor x="-194.0" y="0" name="_bottom"/>
  <anchor x="-299.0" y="-541.0" name="bottom"/>
  <outline>
    <contour>
      <point x="-117" y="-2" type="line"/>
      <point x="-211" y="-137" type="line"/>
      <point x="-194" y="-133"/>
      <point x="-144" y="-124"/>
      <point x="-114" y="-124" type="qcurve" smooth="yes"/>
      <point x="-13" y="-124"/>
      <point x="84" y="-249"/>
      <point x="65" y="-340" type="qcurve" smooth="yes"/>
      <point x="46" y="-431"/>
      <point x="-134" y="-534"/>
      <point x="-244" y="-534" type="qcurve" smooth="yes"/>
      <point x="-324" y="-534"/>
      <point x="-483" y="-485"/>
      <point x="-536" y="-443" type="qcurve"/>
      <point x="-459" y="-312" type="line"/>
      <point x="-428" y="-338"/>
      <point x="-313" y="-383"/>
      <point x="-255" y="-383" type="qcurve" smooth="yes"/>
      <point x="-197" y="-383"/>
      <point x="-146" y="-348"/>
      <point x="-138" y="-315" type="qcurve" smooth="yes"/>
      <point x="-130" y="-282"/>
      <point x="-162" y="-243"/>
      <point x="-214" y="-243" type="qcurve" smooth="yes"/>
      <point x="-245" y="-243"/>
      <point x="-295" y="-256"/>
      <point x="-313" y="-262" type="qcurve"/>
      <point x="-385" y="-170" type="line"/>
      <point x="-220" y="60" type="line"/>
    </contour>
  </outline>
</glyph>
<glyph name="Xi" format="2">
  <advance width="1329"/>
  <unicode hex="039E"/>
  <outline>
    <contour>
      <point x="164" y="1040" type="line"/>
      <point x="254" y="1500" type="line"/>
      <point x="1411" y="1500" type="line"/>
      <point x="1341" y="1040" type="line"/>
      <point x="1189" y="1040" type="line"/>
      <point x="1192" y="1287" type="line"/>
      <point x="775" y="1291" type="line"/>
      <point x="389" y="1287" type="line"/>
      <point x="318" y="1040" type="line"/>
    </contour>
    <contour>
      <point x="228" y="516" type="line"/>
      <point x="315" y="966" type="line"/>
      <point x="448" y="966" type="line"/>
      <point x="450" y="820" type="line"/>
      <point x="703" y="809" type="line"/>
      <point x="971" y="820" type="line"/>
      <point x="1029" y="966" type="line"/>
      <point x="1162" y="966" type="line"/>
      <point x="1075" y="516" type="line"/>
      <point x="942" y="516" type="line"/>
      <point x="940" y="665" type="line"/>
      <point x="678" y="676" type="line"/>
      <point x="419" y="665" type="line"/>
      <point x="361" y="516" type="line"/>
    </contour>
    <contour>
      <point x="-29" y="0" type="line"/>
      <point x="10" y="461" type="line"/>
      <point x="160" y="461" type="line"/>
      <point x="185" y="206" type="line"/>
      <point x="563" y="203" type="line"/>
      <point x="1006" y="206" type="line"/>
      <point x="1090" y="461" type="line"/>
      <point x="1240" y="461" type="line"/>
      <point x="1140" y="0" type="line"/>
    </contour>
  </outline>
</glyph>
<glyph name="Omega" format="2">
  <advance width="1462"/>
  <unicode hex="03A9"/>
  <anchor x="230.0" y="1500" name="tonos"/>
  <outline>
    <contour>
      <point x="-35" y="0" type="line"/>
      <point x="-24" y="398" type="line"/>
      <point x="123" y="398" type="line"/>
      <point x="175" y="146" type="line"/>
      <point x="400" y="141" type="line"/>
      <point x="422" y="247" type="line"/>
      <point x="244" y="320"/>
      <point x="41" y="734"/>
      <point x="106" y="998" type="qcurve" smooth="yes"/>
      <point x="171" y="1261"/>
      <point x="645" y="1570"/>
      <point x="968" y="1522" type="qcurve" smooth="yes"/>
      <point x="1259" y="1479"/>
      <point x="1516" y="1049"/>
      <point x="1445" y="756" type="qcurve" smooth="yes"/>
      <point x="1398" y="561"/>
      <point x="1126" y="288"/>
      <point x="941" y="214" type="qcurve"/>
      <point x="941" y="141" type="line"/>
      <point x="1216" y="146" type="line"/>
      <point x="1324" y="398" type="line"/>
      <point x="1475" y="398" type="line"/>
      <point x="1390" y="0" type="line"/>
      <point x="734" y="0" type="line"/>
      <point x="754" y="381" type="line"/>
      <point x="905" y="414"/>
      <point x="1092" y="601"/>
      <point x="1127" y="769" type="qcurve" smooth="yes"/>
      <point x="1183" y="1018"/>
      <point x="1043" y="1337"/>
      <point x="890" y="1362" type="qcurve" smooth="yes"/>
      <point x="693" y="1395"/>
      <point x="438" y="1192"/>
      <point x="398" y="990" type="qcurve" smooth="yes"/>
      <point x="355" y="786"/>
      <point x="492" y="461"/>
      <point x="657" y="391" type="qcurve"/>
      <point x="572" y="0" type="line"/>
    </contour>
  </outline>
</glyph>
<glyph name="xi" format="2">
  <advance width="830"/>
  <unicode hex="03BE"/>
  <outline>
    <contour>
      <point x="434" y="-317" type="line"/>
      <point x="445" y="-50" type="line"/>
      <point x="369" y="-37" type="line" smooth="yes"/>
      <point x="138" y="2"/>
      <point x="-87" y="244"/>
      <point x="-55" y="423" type="qcurve" smooth="yes"/>
      <point x="-35" y="544"/>
      <point x="124" y="719"/>
      <point x="289" y="774" type="qcurve"/>
      <point x="289" y="777" type="line"/>
      <point x="203" y="836"/>
      <point x="140" y="981"/>
      <point x="152" y="1063" type="qcurve" smooth="yes"/>
      <point x="168" y="1165"/>
      <point x="309" y="1297"/>
      <point x="417" y="1336" type="qcurve"/>
      <point x="417" y="1340" type="line"/>
      <point x="207" y="1329" type="line"/>
      <point x="173" y="1446" type="line"/>
      <point x="265" y="1541" type="line"/>
      <point x="996" y="1508" type="line"/>
      <point x="965" y="1347" type="line"/>
      <point x="634" y="1321"/>
      <point x="365" y="1192"/>
      <point x="348" y="1065" type="qcurve" smooth="yes"/>
      <point x="339" y="993"/>
      <point x="416" y="881"/>
      <point x="510" y="847" type="qcurve"/>
      <point x="753" y="900" type="line"/>
      <point x="797" y="823" type="line"/>
      <point x="715" y="649" type="line"/>
      <point x="470" y="710" type="line"/>
      <point x="339" y="684"/>
      <point x="208" y="560"/>
      <point x="195" y="469" type="qcurve" smooth="yes"/>
      <point x="176" y="332"/>
      <point x="344" y="180"/>
      <point x="517" y="151" type="qcurve" smooth="yes"/>
      <point x="632" y="132" type="line"/>
      <point x="699" y="100" type="line"/>
      <point x="573" y="-317" type="line"/>
    </contour>
  </outline>
</glyph>
<glyph name="tau" format="2">
  <advance width="838"/>
  <unicode hex="03C4"/>
  <outline>
    <contour>
      <point x="756" y="801" type="line"/>
      <point x="-47" y="841" type="line"/>
      <point x="-40" y="944" type="line"/>
      <point x="120" y="1000" type="line"/>
      <point x="825" y="1009" type="line"/>
      <point x="854" y="911" type="line"/>
    </contour>
    <contour>
      <point x="213" y="-15" type="line"/>
      <point x="89" y="117" type="line"/>
      <point x="194" y="512" type="line"/>
      <point x="283" y="880" type="line"/>
      <point x="494" y="880" type="line"/>
      <point x="423" y="476" type="line"/>
      <point x="372" y="164" type="line"/>
      <point x="608" y="184" type="line"/>
      <point x="608" y="76" type="line"/>
    </contour>
  </outline>
</glyph>
<glyph name="em" format="2">
  <advance width="1545"/>
  <unicode hex="043C"/>
  <outline>
    <contour>
      <point x="707" y="0" type="line"/>
      <point x="517" y="0" type="line"/>
      <point x="500" y="452" type="line"/>
      <point x="492" y="630" type="line"/>
      <point x="489" y="737" type="line"/>
      <point x="479" y="737" type="line"/>
      <point x="451" y="635" type="line"/>
      <point x="374" y="364" type="line" smooth="yes"/>
      <point x="326" y="195"/>
      <point x="168" y="-17"/>
      <point x="43" y="-19" type="qcurve" smooth="yes"/>
      <point x="-15" y="-20"/>
      <point x="-89" y="38"/>
      <point x="-89" y="88" type="qcurve" smooth="yes"/>
      <point x="-89" y="144"/>
      <point x="-16" y="205"/>
      <point x="47" y="222" type="qcurve" smooth="yes"/>
      <point x="111" y="239"/>
      <point x="196" y="316"/>
      <point x="231" y="404" type="qcurve" smooth="yes"/>
      <point x="364" y="806" type="line"/>
      <point x="244" y="806" type="line"/>
      <point x="247" y="923" type="line"/>
      <point x="557" y="1001" type="line"/>
      <point x="677" y="1001" type="line"/>
      <point x="716" y="915" type="line"/>
      <point x="725" y="586" type="line"/>
      <point x="734" y="428" type="line"/>
      <point x="734" y="333" type="line"/>
      <point x="743" y="329" type="line"/>
      <point x="789" y="417" type="line"/>
      <point x="871" y="559" type="line"/>
      <point x="1125" y="992" type="line"/>
      <point x="1415" y="992" type="line"/>
      <point x="1322" y="522" type="line"/>
      <point x="1252" y="154" type="line"/>
      <point x="1369" y="154" type="line"/>
      <point x="1369" y="47" type="line"/>
      <point x="1047" y="-23" type="line"/>
      <point x="992" y="73" type="line"/>
      <point x="1080" y="524" type="line"/>
      <point x="1106" y="632" type="line"/>
      <point x="1130" y="724" type="line"/>
      <point x="1122" y="728" type="line"/>
      <point x="1078" y="646" type="line"/>
      <point x="984" y="476" type="line"/>
    </contour>
  </outline>
</glyph>
<glyph name="ef" format="2">
  <advance width="1294"/>
  <unicode hex="0444"/>
  <outline>
    <contour>
      <point x="707" y="563" type="line"/>
      <point x="603" y="48" type="line"/>
      <point x="607" y="18" type="line"/>
      <point x="552" y="-286" type="line"/>
      <point x="698" y="-326" type="line"/>
      <point x="670" y="-428" type="line"/>
      <point x="389" y="-462" type="line"/>
      <point x="282" y="-392" type="line"/>
      <point x="365" y="23" type="line"/>
      <point x="383" y="60" type="line"/>
      <point x="487" y="576" type="line"/>
      <point x="558" y="962" type="line"/>
      <point x="553" y="967" type="line"/>
      <point x="634" y="1391" type="line"/>
      <point x="495" y="1485" type="line"/>
      <point x="525" y="1571" type="line"/>
      <point x="818" y="1606" type="line"/>
      <point x="905" y="1536" type="line"/>
      <point x="795" y="961" type="line"/>
      <point x="783" y="946" type="line"/>
    </contour>
    <contour>
      <point x="485" y="103" type="qcurve" smooth="yes"/>
      <point x="717" y="103"/>
      <point x="935" y="403"/>
      <point x="935" y="597" type="qcurve" smooth="yes"/>
      <point x="935" y="728"/>
      <point x="815" y="891"/>
      <point x="670" y="891" type="qcurve" smooth="yes"/>
      <point x="456" y="891"/>
      <point x="221" y="591"/>
      <point x="221" y="397" type="qcurve" smooth="yes"/>
      <point x="221" y="266"/>
      <point x="346" y="103"/>
    </contour>
    <contour>
      <point x="464" y="-17" type="qcurve" smooth="yes"/>
      <point x="250" y="-17"/>
      <point x="-18" y="201"/>
      <point x="-18" y="386" type="qcurve" smooth="yes"/>
      <point x="-18" y="654"/>
      <point x="395" y="1011"/>
      <point x="695" y="1011" type="qcurve" smooth="yes"/>
      <point x="925" y="1011"/>
      <point x="1184" y="793"/>
      <point x="1184" y="608" type="qcurve" smooth="yes"/>
      <point x="1184" y="340"/>
      <point x="785" y="-17"/>
    </contour>
  </outline>
</glyph>
<glyph name="kaverticalstrokecyr" format="2">
  <advance width="1204"/>
  <unicode hex="049D"/>
  <outline>
    <contour>
      <point x="-14" y="56" type="line"/>
      <point x="89" y="527" type="line"/>
      <point x="136" y="802" type="line"/>
      <point x="-1" y="798" type="line"/>
      <point x="1" y="915" type="line"/>
      <point x="240" y="1000" type="line"/>
      <point x="285" y="1000" type="line"/>
      <point x="408" y="920" type="line"/>
      <point x="334" y="528" type="line"/>
      <point x="240" y="83" type="line"/>
      <point x="271" y="0" type="line"/>
      <point x="28" y="-23" type="line"/>
    </contour>
    <contour>
      <point x="985" y="153" type="line"/>
      <point x="1096" y="153" type="line"/>
      <point x="1096" y="36" type="line"/>
      <point x="880" y="-9" type="line" smooth="yes"/>
      <point x="846" y="-16"/>
      <point x="790" y="-14"/>
      <point x="761" y="31" type="qcurve" smooth="yes"/>
      <point x="495" y="436" type="line"/>
      <point x="660" y="644" type="line"/>
    </contour>
    <contour>
      <point x="484" y="227" type="line"/>
      <point x="328" y="227" type="line"/>
      <point x="438" y="792" type="line"/>
      <point x="594" y="792" type="line"/>
    </contour>
    <contour>
      <point x="486" y="493" type="line"/>
      <point x="730" y="835" type="line" smooth="yes"/>
      <point x="797" y="929"/>
      <point x="919" y="1013"/>
      <point x="994" y="1013" type="qcurve" smooth="yes"/>
      <point x="1061" y="1013"/>
      <point x="1138" y="927"/>
      <point x="1138.0" y="852" type="qcurve" smooth="yes"/>
      <point x="1138" y="758"/>
      <point x="1037" y="659"/>
      <point x="981" y="642" type="qcurve"/>
      <point x="926" y="642" type="line"/>
      <point x="926" y="718"/>
      <point x="921" y="808"/>
      <point x="904" y="808" type="qcurve" smooth="yes"/>
      <point x="893" y="808"/>
      <point x="873" y="794"/>
      <point x="854" y="770" type="qcurve" smooth="yes"/>
      <point x="441" y="264" type="line"/>
    </contour>
  </outline>
</glyph>
<glyph name="foursuperior" format="2">
  <advance width="763"/>
  <unicode hex="2074"/>
  <outline>
    <contour>
      <point x="45" y="884" type="line"/>
      <point x="63" y="1017" type="line"/>
      <point x="603" y="1549" type="line"/>
      <point x="730" y="1520" type="line"/>
      <point x="752" y="1475" type="line"/>
      <point x="642" y="958" type="line"/>
      <point x="596" y="729" type="line"/>
      <point x="604" y="644" type="line"/>
      <point x="463" y="608" type="line"/>
      <point x="384" y="672" type="line"/>
      <point x="455" y="971" type="line"/>
      <point x="528" y="1316" type="line"/>
      <point x="232" y="1024" type="line"/>
      <point x="234" y="1015" type="line"/>
      <point x="573" y="1011" type="line"/>
      <point x="789" y="1015" type="line"/>
      <point x="765" y="873" type="line"/>
      <point x="550" y="876" type="line"/>
    </contour>
  </outline>
</glyph>
<glyph name="acutecomb.case" format="2">
  <anchor x="98.0" y="1500" name="_top"/>
  <anchor x="211.0" y="2086.0" name="top"/>
  <outline>
    <contour>
      <point x="-57" y="1722" type="line"/>
      <point x="184" y="1956" type="line" smooth="yes"/>
      <point x="227" y="1999"/>
      <point x="315" y="2048"/>
      <point x="362" y="2048" type="qcurve" smooth="yes"/>
      <point x="411" y="2048"/>
      <point x="466" y="1984"/>
      <point x="466" y="1942" type="qcurve" smooth="yes"/>
      <point x="466" y="1893"/>
      <point x="378" y="1819"/>
      <point x="327" y="1791" type="qcurve" smooth="yes"/>
      <point x="23" y="1619" type="line"/>
    </contour>
  </outline>
</glyph>
<glyph name="brevecomb.case" format="2">
  <anchor x="98.0" y="1500" name="_top"/>
  <anchor x="190.0" y="1976.0" name="top"/>
  <outline>
    <contour>
      <point x="437" y="1972" type="qcurve"/>
      <point x="543" y="1900" type="line"/>
      <point x="498" y="1802"/>
      <point x="290" y="1633"/>
      <point x="131" y="1633" type="qcurve" smooth="yes"/>
      <point x="-21" y="1633"/>
      <point x="-202" y="1786"/>
      <point x="-209" y="1897" type="qcurve"/>
      <point x="-84" y="1969" type="line"/>
      <point x="-65" y="1917"/>
      <point x="39" y="1830"/>
      <point x="136" y="1830" type="qcurve" smooth="yes"/>
      <point x="238" y="1830"/>
      <point x="398" y="1923"/>
    </contour>
  </outline>
</glyph>
<glyph name="dieresistonoscomb" format="2">
  <anchor x="97.0" y="1000" name="_GRKtop"/>
  <outline>
    <contour>
      <point x="-89.0" y="1148.0" type="qcurve" smooth="yes"/>
      <point x="-152.0" y="1148.0"/>
      <point x="-227" y="1222"/>
      <point x="-227" y="1282" type="qcurve" smooth="yes"/>
      <point x="-227" y="1347"/>
      <point x="-155" y="1417"/>
      <point x="-89.0" y="1417.0" type="qcurve" smooth="yes"/>
      <point x="-26" y="1417"/>
      <point x="49" y="1343"/>
      <point x="49" y="1282" type="qcurve" smooth="yes"/>
      <point x="49" y="1218"/>
      <point x="-21.0" y="1148.0"/>
    </contour>
    <contour>
      <point x="229" y="1135" type="line"/>
      <point x="102" y="1180" type="line"/>
      <point x="178" y="1646" type="line"/>
      <point x="382" y="1646" type="line"/>
      <point x="432" y="1582" type="line"/>
    </contour>
    <contour>
      <point x="531.0" y="1147.0" type="qcurve" smooth="yes"/>
      <point x="468" y="1147"/>
      <point x="393" y="1220"/>
      <point x="393" y="1281" type="qcurve" smooth="yes"/>
      <point x="393" y="1346"/>
      <point x="465" y="1416"/>
      <point x="531.0" y="1416.0" type="qcurve" smooth="yes"/>
      <point x="594" y="1416"/>
      <point x="669" y="1341"/>
      <point x="669" y="1281" type="qcurve" smooth="yes"/>
      <point x="669" y="1217"/>
      <point x="599" y="1147"/>
    </contour>
  </outline>
</glyph>
<glyph name="dotaccentcomb.case" format="2">
  <anchor x="98.0" y="1500" name="_top"/>
  <anchor x="177.0" y="1910" name="top"/>
  <outline>
    <contour>
      <point x="-21" y="1767" type="qcurve" smooth="yes"/>
      <point x="-21" y="1833"/>
      <point x="67" y="1920"/>
      <point x="136" y="1920" type="qcurve" smooth="yes"/>
      <point x="205" y="1920"/>
      <point x="294" y="1833"/>
      <point x="294" y="1767" type="qcurve" smooth="yes"/>
      <point x="294" y="1701"/>
      <point x="205" y="1615"/>
      <point x="136" y="1615" type="qcurve" smooth="yes"/>
      <point x="67" y="1615"/>
      <point x="-21" y="1701"/>
    </contour>
  </outline>
</glyph>
<glyph name="horncomb.case" format="2">
  <anchor x="98.0" y="1500" name="_topright"/>
  <anchor x="155.0" y="1790" name="topright"/>
  <outline>
    <contour>
      <point x="98" y="1500" type="line"/>
      <point x="121" y="1500"/>
      <point x="216" y="1500"/>
      <point x="236" y="1500" type="qcurve" smooth="yes"/>
      <point x="284" y="1500"/>
      <point x="342" y="1544"/>
      <point x="353" y="1581" type="qcurve" smooth="yes"/>
      <point x="365" y="1623"/>
      <point x="360" y="1719"/>
      <point x="346" y="1773" type="qcurve"/>
      <point x="531" y="1773" type="line"/>
      <point x="546" y="1731"/>
      <point x="555" y="1598"/>
      <point x="539" y="1524" type="qcurve" smooth="yes"/>
      <point x="522" y="1443"/>
      <point x="376" y="1355"/>
      <point x="301" y="1355" type="qcurve" smooth="yes"/>
      <point x="242" y="1355"/>
      <point x="104" y="1373"/>
      <point x="75" y="1383" type="qcurve"/>
    </contour>
  </outline>
</glyph>
<glyph name="macroncomb.case" format="2">
  <anchor x="98.0" y="1500" name="_top"/>
  <anchor x="151.0" y="1774.0" name="top"/>
  <outline>
    <contour>
      <point x="-173" y="1640" type="line"/>
      <point x="-135" y="1845" type="line"/>
      <point x="457" y="1845" type="line"/>
      <point x="419" y="1640" type="line"/>
    </contour>
  </outline>
</glyph>
<glyph name="tonoscomb" format="2">
  <anchor x="97" y="1000" name="_GRKtop"/>
  <outline>
    <contour>
      <point x="134" y="1130" type="line"/>
      <point x="13" y="1194" type="line"/>
      <point x="184" y="1631" type="line"/>
      <point x="382" y="1601" type="line"/>
      <point x="427" y="1529" type="line"/>
    </contour>
  </outline>
</glyph>
<glyph name="yu.bgr-stroke" format="2">
  <advance width="1505"/>
  <anchor x="193" y="498" name="_yu_dash"/>
  <anchor x="539" y="498" name="yu_dash"/>
  <outline>
    <contour>
      <point x="188" y="562" type="line"/>
      <point x="571" y="573" type="line"/>
      <point x="548" y="451" type="line"/>
      <point x="162" y="427" type="line"/>
    </contour>
  </outline>
</glyph>
